@startuml "Tic Tac Toe"

state "Corner Start" as cstart {
    state 1
    state 3
    state 7
    state 9
}

state "Edge Start" as estart {
    state 2
    state 4
    state 6
    state 8
}

state "Center Start" as cents {
    state 5
}

state "Adjacent" as adj {
    state 12
    state 14
}

state "Corner" as corn {
    state 13
    state 17
    state 19
}

state "Edge" as edge {
    state 16
    state 18
}

state "Center" as cent {
    state 15
}

state "X Wins" as x {
    state 1274958
    state 1274985
    state 12749_5
    state 12749_8
    state 127_4
    state 1374958
    state 1374985
    state 137_4
    state 1593748
    state 1593784
    state 1597326
    state 1597362
    state 1632745
    state 1632754
}

state "Probable Tie" as tie {
    state 15928
    state 15946
    state 15964
    state 15982
    state 159823
    state 1598237
    state 15982374
    state 159823746
}

[*] --> 1

1: x - -
1: - - -
1: - - -

1 --> 12

12: x o -
12: - - -
12: - - -

12 --> 127

127: x o -
127: - - -
127: x - -

127 --> 1274

1274: x o -
1274: o - -
1274: x - -

1274 --> 12749

12749: x o -
12749: o - -
12749: x - x

12749 --> 127495

127495: x o -
127495: o o -
127495: x - x

127495 --> 1274958

1274958: x o -
1274958: o o -
1274958: x x x

12749 --> 127498

127498: x o -
127498: o - -
127498: x o x

127498 --> 1274985

1274985: x o -
1274985: o x -
1274985: x o x

12749 --> 12749_

12749_: x o _
12749_: o - _
12749_: x - x

12749_ --> 12749_5

12749_5: x o _
12749_5: o x _
12749_5: x - x

12749_ --> 12749_8

12749_8: x o _
12749_8: o - _
12749_8: x x x

127 --> 127_

127_: x o _
127_: - _ _
127_: x _ _

127_ --> 127_4

127_4: x o _
127_4: x _ _
127_4: x _ _

1 --> 13

13: x - o
13: - - -
13: - - -

13 --> 137

137: x - o
137: - - -
137: x - -

137 --> 1374

1374: x - o
1374: o - -
1374: x - -

1374 --> 13749

13749: x - o
13749: o - -
13749: x - x

137 --> 137_

137_: x _ o
137_: - _ _
137_: x _ _

137_ --> 137_4

137_4: x _ o
137_4: x _ _
137_4: x _ _

13749 --> 137495

137495: x - o
137495: o o -
137495: x - x

137495 --> 1374958

1374958: x - o
1374958: o o -
1374958: x x x

13749 --> 137498

137498: x - o
137498: o - -
137498: x o x

137498 --> 1374985

1374985: x - o
1374985: o x -
1374985: x o x

1 --> 14

14: x - -
14: o - -
14: - - -

14 --> 143

143: x - x
143: o - -
143: - - -

1 --> 15

15: x - -
15: - o -
15: - - -

15 --> 159

159: x - -
159: - o -
159: - - x

159_ --> 15928

15928: x o -
15928: - o -
15928: - x x

159 --> 1593

1593: x - o
1593: - o -
1593: - - x

1593 --> 15937

15937: x - o
15937: - o -
15937: x - x

15937 --> 159374

159374: x - o
159374: o o -
159374: x - x

159374 --> 1593748

1593748: x - o
1593748: o o -
1593748: x x x

15937 --> 159378

159378: x - o
159378: - o -
159378: x o x

159378 --> 1593784

1593784: x - o
1593784: x o -
1593784: x o x

159_ --> 15946

15946: x - -
15946: o o x
15946: - - x

159_ --> 15964

15964: x - -
15964: x o o
15964: - - x

159 --> 1597

1597: x - -
1597: - o -
1597: o - x

1597 --> 15973

15973: x - x
15973: - o -
15973: o - x

15973 --> 159732

159732: x o x
159732: - o -
159732: o - x

159732 --> 1597326

1597326: x o x
1597326: - o x
1597326: o - x

15973 --> 159736

159736: x - x
159736: - o o
159736: o - x

159736 --> 1597362

1597362: x x x
1597362: - o o
1597362: o - x

159_ --> 15982

15982: x x -
15982: - o -
15982: - o x

15982 -> 159823

159823: x x o
159823: - o -
159823: - o x

159823 --> 1598237

1598237: x x o
1598237: - o -
1598237: x o x

1598237 -> 15982374

15982374: x x o
15982374: o o -
15982374: x o x

15982374 --> 159823746

159823746: x x o
159823746: o o x
159823746: x o x

159 --> 159_

159_: x _ -
159_: _ o _
159_: - _ x

1 --> 16

16: x - -
16: - - o
16: - - -

16 --> 163

163: x - x
163: - - o
163: - - -

163 --> 1632

1632: x o x
1632: - - o
1632: - - -

1632 --> 16327

16327: x o x
16327: - - o
16327: x - -

16327 --> 163274

163274: x o x
163274: o - o
163274: x - -

163274 --> 1632745

1632745: x o x
1632745: o x o
1632745: x - -

16327 --> 163275

163275: x o x
163275: - o o
163275: x - -

163275 --> 1632754

1632754: x o x
1632754: x o o
1632754: x - -

1 --> 17

17: x - -
17: - - -
17: o - -

17 --> 173

173: x - x
173: - - -
173: o - -

1 --> 18

18: x - -
18: - - -
18: - o -

18 --> 187

187: x - -
187: - - -
187: x o -

1 --> 19

19: x - -
19: - - -
19: - - o

19 --> 197

197: x - -
197: - - -
197: x - o

[*] --> 2
2: - x -
2: - - -
2: - - -

2 --> 21
21: o x -
21: - - -
21: - - -

2 --> 23
23: - x o
23: - - -
23: - - -

2 --> 24
24: - x -
24: o - -
24: - - -

2 --> 25
25: - x -
25: - o -
25: - - -

25 --> 251
251: x x -
251: - o -
251: - - -

251 --> 2513
2513: x x o
2513: - o -
2513: - - -

2513 --> 25137
25137: x x o
25137: - o -
25137: x - -

25137 --> 251374
251374: x x o
251374: o o -
251374: x - -

251374 --> 2513746
2513746: x x o
2513746: o o x
2513746: x - -

2 --> 26
26: - x -
26: - - o
26: - - -

2 --> 27
27: - x -
27: - - -
27: o - -

2 --> 28
28: - x -
28: - - -
28: - o -

2 --> 29
29: - x -
29: - - -
29: - - o

[*] --> 3
3: - - x
3: - - -
3: - - -

[*] --> 4
4: - - -
4: x - -
4: - - -

[*] --> 5
5: - - -
5: - x -
5: - - -

[*] --> 6
6: - - -
6: - - x
6: - - -

[*] --> 7
7: - - -
7: - - -
7: x - -

[*] --> 8
8: - - -
8: - - -
8: - x -

[*] --> 9
9: - - -
9: - - -
9: - - x

@enduml